<svg xmlns="http://www.w3.org/2000/svg" xmlns:xlink="http://www.w3.org/1999/xlink" viewBox="0 70 683 580">
  <defs>
    <style>
      .cls-1 {
        clip-path: url(#clip-iPad_1);
      }

      .cls-3, .cls-5 {
        fill: #fff;
      }

      .cls-3, .cls-6, .cls-8, .cls-9 {
        fill-rule: evenodd;
      }

      .cls-4 {
        fill: #e3000f;
      }

      .cls-6 {
        fill: #f08290;
      }

      .cls-7 {
        fill: #45535b;
      }

      .cls-8 {
        fill: #0f0e09;
      }

      .cls-9 {
        fill: #285aa7;
      }
    </style>
    <clipPath id="clip-iPad_1">
      <rect y="-17" width="683" height="769"/>
    </clipPath>
  </defs>
  <g id="iPad_1" data-name="iPad – 1" class="cls-1">
    <g id="Gruppe_1" data-name="Gruppe 1" transform="translate(108.278 110.12)">
      <g id="Speech_Bubble_1_" transform="translate(6.976 0)">
        <g id="Gruppe_670" data-name="Gruppe 670">
          <path id="Pfad_359" data-name="Pfad 359" class="cls-3" d="M307.139,123.108a124.052,124.052,0,0,0,46.627,9.072,141.226,141.226,0,0,0,16.562-.949l29.749,22.892-11.182-25.845c35.867-9.072,58.442-33.23,58.653-61.818C447.759,29.96,406.09.211,354.5,0s-93.571,29.116-93.676,65.616C260.617,90.09,279.289,111.5,307.139,123.108ZM123.057,107.074C58.6,107.39,6.489,144.628,6.7,190.2c.211,35.656,32.386,65.932,77.22,77.325l-10.76,28.061,29.959-24.474a149.722,149.722,0,0,0,20.782,1.16,155.335,155.335,0,0,0,58.337-11.288c34.812-14.452,58.231-41.247,58.126-71.839C240.152,143.468,187.617,106.757,123.057,107.074Zm325.335,117.2c.211-34.179-38.926-62.134-87.241-62.345s-87.663,27.322-87.874,61.5c-.105,22.892,17.406,43.04,43.568,53.906a115.623,115.623,0,0,0,43.779,8.545,123.668,123.668,0,0,0,15.507-.949l22.575,18.355-8.123-20.993C424.129,273.75,448.286,251.069,448.392,224.274Z" transform="translate(-6.699 0.001)"/>
        </g>
      </g>
      <path id="Pfad_360" data-name="Pfad 360" class="cls-4" d="M91.565,142.887a125.71,125.71,0,0,1,6.54-40.087c-1.16.105-2.321.316-3.481.527a128.557,128.557,0,0,0,69.835,156.865c1.582-.422,3.059-.949,4.642-1.477C123.634,239.833,91.565,195,91.565,142.887Z" transform="translate(4.763 5.646)"/>
      <path id="Pfad_361" data-name="Pfad 361" class="cls-4" d="M334.173,154c-1.055.106-2.11.211-3.27.316a126.05,126.05,0,0,1-59.6,92.938c.738.844,1.371,1.582,2.11,2.426A128.426,128.426,0,0,0,334.173,154Z" transform="translate(14.806 8.458)"/>
      <path id="Pfad_362" data-name="Pfad 362" class="cls-4" d="M260.41,30.1c-.738.844-1.371,1.688-2.11,2.532a125.443,125.443,0,0,1,73,97.685c1.055.105,2.11.105,3.27.211A128.461,128.461,0,0,0,260.41,30.1Z" transform="translate(14.092 1.654)"/>
      <g id="Gruppe_671" data-name="Gruppe 671" transform="translate(104.028 19.728)">
        <path id="Pfad_363" data-name="Pfad 363" class="cls-4" d="M219.8,275.571c-3.9.105-7.912,0-11.815-.211l.211-3.165a101.39,101.39,0,0,0,12.659.106l.106,3.165C220.542,275.466,220.226,275.571,219.8,275.571Zm14.136-1.16-.422-3.165a123.2,123.2,0,0,0,12.448-2.321l.738,3.059C242.484,272.934,238.265,273.778,233.94,274.411Zm-38.926-.527c-4.22-.738-8.545-1.688-12.764-2.743l.844-3.059a124.637,124.637,0,0,0,12.448,2.743Zm64.139-5.7-1.055-2.954a113.885,113.885,0,0,0,11.71-4.853l1.371,2.848A99.394,99.394,0,0,1,259.152,268.187ZM344.6,151.2h-3.165v-6.54c-.105-2-.211-4.114-.422-6.118l3.165-.316c.211,2.11.316,4.22.422,6.329v1.371A43.968,43.968,0,0,1,344.6,151.2ZM101.654,96.236,98.7,94.97c1.793-3.9,3.692-7.806,5.908-11.6l2.743,1.582A102.707,102.707,0,0,0,101.654,96.236Zm12.553-22.048L111.675,72.4c2.532-3.481,5.275-6.962,8.123-10.233l2.426,2.11A99.943,99.943,0,0,0,114.207,74.188ZM130.98,55.2l-2.11-2.321a107.6,107.6,0,0,1,10.022-8.334l1.9,2.532A105.527,105.527,0,0,0,130.98,55.2Zm20.254-15.3-1.688-2.743c3.692-2.215,7.6-4.325,11.5-6.224l1.371,2.848A126.159,126.159,0,0,0,151.235,39.9ZM261.367,30.2c-3.9-1.477-8.017-2.848-12.026-4.009l.844-3.059a120.892,120.892,0,0,1,12.342,4.114Zm-87.241-1.16-1.055-2.954a105,105,0,0,1,12.448-3.692l.738,3.059A94.417,94.417,0,0,0,174.126,29.038Zm62.767-5.591a125.6,125.6,0,0,0-12.659-1.477l.211-3.165c4.325.316,8.65.738,12.975,1.477Zm-38.188-.422-.422-3.165c4.22-.633,8.65-.949,12.975-1.16h.316l.105,3.165h-.316A125.4,125.4,0,0,0,198.706,23.025Z" transform="translate(-98.7 -18.7)"/>
      </g>
      <g id="Forme_4_1_" transform="translate(89.681 355.928)">
        <g id="Gruppe_672" data-name="Gruppe 672">
          <path id="Pfad_364" data-name="Pfad 364" class="cls-3" d="M219.918,337.4c-74.477,0-134.818,9.494-134.818,21.1,0,11.393,57.7,20.676,129.965,21.1h4.853c74.477,0,134.818-9.494,134.818-21.1S294.395,337.4,219.918,337.4Z" transform="translate(-85.1 -337.4)"/>
        </g>
      </g>
      <rect id="Rechteck_190" data-name="Rechteck 190" class="cls-5" width="5.908" height="93.36" transform="translate(221.545 388.631)"/>
      <g id="hand_right_19_" transform="translate(330.776 396.542)">
        <g id="Gruppe_673" data-name="Gruppe 673">
          <path id="Pfad_365" data-name="Pfad 365" class="cls-6" d="M324.463,384.234c-.949-3.376-4.22-8.334-4.22-8.334l-5.486,2.215s-2,13.608-.633,13.714,2.11-6.54,2.637-6.646c.527-.211,2.637,3.8,2.637,6.118s-.316,5.275,1.16,5.275,3.27-1.9,4.009-4.642C325.413,389.192,325.413,387.61,324.463,384.234Z" transform="translate(-313.645 -375.9)"/>
        </g>
      </g>
      <path id="Pfad_366" data-name="Pfad 366" class="cls-7" d="M270.579,454.516s2.637,6.119.422,8.334c-.949.949-5.908.844-10.971.949-6.857.211-14.03.316-14.03-1.266,0-2.743,20.36-8.334,20.36-8.334Z" transform="translate(13.417 24.942)"/>
      <path id="Pfad_367" data-name="Pfad 367" class="cls-7" d="M302.919,452.6s3.8,7.912,1.582,10.127c-.949.949-5.908.844-10.971.949-6.857.211-14.03.316-14.03-1.266,0-2.743,20.36-8.334,20.36-8.334Z" transform="translate(15.256 24.854)"/>
      <g id="neck_3_" transform="translate(290.537 322.91)">
        <g id="Gruppe_674" data-name="Gruppe 674">
          <path id="Pfad_368" data-name="Pfad 368" class="cls-6" d="M289.847,317.7h0Zm-2.426-5.7a16.91,16.91,0,0,1,.527-3.27L276.027,306.1s.844,3.587,1.16,5.8-1.688,4.747-1.688,4.747a25.591,25.591,0,0,0,6.857,1.371c2.848,0,6.435-.105,7.384-.211C288.581,317.6,287.21,313.8,287.421,312.008Z" transform="translate(-275.5 -306.1)"/>
        </g>
      </g>
      <g id="hand_left_2_" transform="translate(227.492 261.072)">
        <g id="Gruppe_675" data-name="Gruppe 675">
          <path id="Pfad_369" data-name="Pfad 369" class="cls-6" d="M228.146,260.9c-1.582-4.009-5.591-13.925-7.068-13.4s1.477,10.233,1.371,11.077c-.105,1.16-2.848.527-5.064,3.376-2.215,2.954-2.11,5.486-.211,8.65s8.228,7.6,9.283,7.6c1.055-.106,3.587-3.692,3.9-4.958S229.728,264.907,228.146,260.9Z" transform="translate(-215.737 -247.481)"/>
        </g>
      </g>
      <g id="pants_7_" transform="translate(273.599 385.816)">
        <g id="Gruppe_676" data-name="Gruppe 676">
          <path id="Pfad_370" data-name="Pfad 370" class="cls-8" d="M303.282,435.85c-1.477-6.119-2.532-10.76-2.954-13.608-.422-2.743,0-15.718,0-27.006s-.105-29.96-.105-28.694c-.106-1.055-33.652-2-33.652,3.481,0,0-5.7,28.9-6.857,42.724s1.793,46.627,1.793,46.627a18.4,18.4,0,0,0,4.958,1.266,15.247,15.247,0,0,0,4.642.105S272.8,446.5,272.9,435.322c.105-6.962-1.16-12.553-.211-15.4,2.532-7.384,7.279-26.584,8.861-27.111,1.477-.633,2.954,20.465,4.853,30.592s9.916,36.289,9.916,36.289a23.415,23.415,0,0,0,4.853.528,7.714,7.714,0,0,0,4.325-1.266S305.919,446.61,303.282,435.85Z" transform="translate(-259.444 -365.732)"/>
        </g>
      </g>
      <g id="T-shirt_3_" transform="translate(237.886 284.616)">
        <g id="Gruppe_677" data-name="Gruppe 677">
          <path id="Pfad_371" data-name="Pfad 371" class="cls-9" d="M321.914,365.9c-1.793-6.329-5.38-16.457-8.123-23.525s-7.279-17.617-12.131-20.993c-4.853-3.481-12.659-3.9-16.562-4.325A51.876,51.876,0,0,1,268.641,312c-5.486-2.743-18.777-16.562-18.777-16.562s-19.727-25.74-19.621-25.634a11.437,11.437,0,0,0-2.743,2.426,8.1,8.1,0,0,0-1.9,5.486c.105,1.9,8.65,15.507,18.883,30.17,9.916,14.136,19.621,23.841,20.993,27.85s1.16,14.347.949,23.841c-.316,11.393.633,23.63.633,23.63s8.545-.422,17.406-.316c8.334.106,17.934.738,17.828.738,0,0,.633-11.71,0-23-.422-8.967-.949-15.191-.316-15.507,1.371-.844,16.457,38.926,17.512,39.77,1.16.738,6.54-2.215,6.54-2.215S323.707,372.337,321.914,365.9Z" transform="translate(-225.591 -269.8)"/>
        </g>
      </g>
      <g id="hair_2_" transform="translate(281.623 293.986)">
        <g id="Gruppe_678" data-name="Gruppe 678">
          <path id="Pfad_372" data-name="Pfad 372" class="cls-8" d="M293.686,283.237c-7.6-7.173-17.2-4.536-21.52-1.16s-5.38,8.861-5.064,14.663,5.064,9.916,8.861,13.5,8.65,4.325,12.764,2.11a22.144,22.144,0,0,0,10.338-13.081C300.754,293.153,297.484,286.824,293.686,283.237Z" transform="translate(-267.051 -278.682)"/>
        </g>
      </g>
      <path id="Pfad_373" data-name="Pfad 373" class="cls-7" d="M46.568,449.516s-2.637,6.118-.422,8.334c.949.949,5.908.844,10.971.949,6.857.211,14.03.316,14.03-1.266,0-2.743-20.36-8.334-20.36-8.334Z" transform="translate(2.394 24.668)"/>
      <path id="Pfad_374" data-name="Pfad 374" class="cls-7" d="M12.618,447.7s-3.8,7.912-1.582,10.127c.949.949,5.908.844,10.971.949,6.857.211,14.03.316,14.03-1.266,0-2.743-20.36-8.334-20.36-8.334Z" transform="translate(0.476 24.585)"/>
      <g id="Forme_12_3_" transform="translate(11.618 383.04)">
        <g id="Gruppe_679" data-name="Gruppe 679">
          <path id="Pfad_375" data-name="Pfad 375" class="cls-8" d="M60.048,410.571C59.1,396.646,55.2,363.1,55.2,363.1H22.7s-1.16,11.5-2,24.368c-.316,5.169-1.371,32.7-2.954,38.926-2.637,10.76-6.646,27.428-6.646,27.428a25.033,25.033,0,0,0,4.747,2.11c2.215.633,5.8-.949,5.8-.949s11.6-28.8,12.764-34.707,6.118-37.555,6.118-37.555,3.8,22.153,6.013,35.867c.527,2.954,0,10.127,0,17.2-.105,11.182.527,19.2.527,19.2a11.516,11.516,0,0,0,5.275.844,9.642,9.642,0,0,0,5.064-1.371C57.516,454.561,61,424.5,60.048,410.571Z" transform="translate(-11.1 -363.1)"/>
        </g>
      </g>
      <g id="Forme_7_1_" transform="translate(31.727 290.939)">
        <g id="Gruppe_680" data-name="Gruppe 680">
          <path id="Pfad_376" data-name="Pfad 376" class="cls-6" d="M52.25,287.3c-.844-6.435-1.055-8.967-2.637-10.022s-3.9-1.9-8.65-1.266c-4.747.527-8.967,13.4-10.76,20.887-.527,2,4.431,5.7,4.536,7.384s-1.266,4.431-1.266,4.431l11.288,1.793s-.633-3.8.633-4.958c1.371-1.266,1.688-.949,4.431-2.215,1.688-.738,2.11-4.22,2.743-7.806.211-1.16,1.477-2,1.477-3.27C54.149,290.78,52.461,288.67,52.25,287.3Z" transform="translate(-30.163 -275.793)"/>
        </g>
      </g>
      <g id="Forme_6_1_" transform="translate(23.546 286.702)">
        <g id="Gruppe_681" data-name="Gruppe 681">
          <path id="Pfad_377" data-name="Pfad 377" class="cls-8" d="M51.726,277.709c-2.743-5.169-15.929-9.6-24.79-1.371-4.431,4.22-6.118,12.87-2.743,18.566,2.637,4.431,9.811,7.49,9.811,7.49a35.814,35.814,0,0,1,2-6.013c1.582-3.8,6.857-6.751,9.389-8.65C50.355,284.038,54.469,282.878,51.726,277.709Z" transform="translate(-22.407 -271.777)"/>
        </g>
      </g>
      <g id="hand_right_15_" transform="translate(0 315.68)">
        <g id="Gruppe_682" data-name="Gruppe 682">
          <path id="Pfad_378" data-name="Pfad 378" class="cls-6" d="M107.913,299.408c-1.266-.844-2.637,1.793-3.9,3.8-1.266,1.9-5.275,4.009-5.7,3.587-.316-.422,2.637-6.435,1.371-7.068s-6.962,11.815-6.962,11.815l3.587,4.958s5.591-2.321,8.228-4.536a11.316,11.316,0,0,0,4.325-6.329C109.706,302.89,109.284,300.252,107.913,299.408ZM4.637,371.353s-3.059,5.064-3.9,8.334a12.47,12.47,0,0,0-.105,7.6c.738,2.637,2.426,4.642,3.8,4.642s1.055-2.954,1.055-5.275,2-6.224,2.426-6.118c.527.211,1.16,6.857,2.532,6.646,1.266-.105-.633-13.714-.633-13.714Z" transform="translate(-0.087 -299.247)"/>
        </g>
      </g>
      <g id="t-shirt_7_" transform="translate(1.28 323.205)">
        <g id="Gruppe_683" data-name="Gruppe 683" transform="translate(0)">
          <path id="Pfad_379" data-name="Pfad 379" class="cls-3" d="M92.655,309.144c0-.211-13.292,20.149-15.718,20.254-1.477.106-9.178-7.7-13.4-12.342A40.3,40.3,0,0,0,55,309.671a30.735,30.735,0,0,0-13.4-3.27,69,69,0,0,0-8.545.422c-7.173,1.16-10.971,3.481-13.608,8.228-2.637,4.642-8.861,13.186-12.764,28.483A230.584,230.584,0,0,0,1.3,373.915s7.912-.211,9.494-1.371,1.9-12.342,5.8-24.474c3.27-10.127,7.384-17.617,8.228-18.461.527-.527-1.266,8.017-1.477,16.351-.316,10.971-.422,23.525-.422,23.525a177.5,177.5,0,0,0,20.782,1.9c7.173.105,12.764-.316,12.764-.316s.844-14.98,1.371-20.254.422-19.094,1.266-19.3,15.085,12.975,18.461,12.975S97.4,319.8,97.3,317.372C97.086,314.735,92.655,309.144,92.655,309.144Z" transform="translate(-1.3 -306.38)"/>
        </g>
      </g>
      <path id="Pfad_380" data-name="Pfad 380" class="cls-3" d="M34.249,304.5l5.908,2,4.642-1.371a9.8,9.8,0,0,1-.105,1.371,6.513,6.513,0,0,0-.105.949l-9.6-.949-1.688.633Z" transform="translate(1.737 16.722)"/>
      <g id="Forme_10_1_" transform="translate(38.202 324.598)">
        <g id="Gruppe_684" data-name="Gruppe 684">
          <path id="Pfad_381" data-name="Pfad 381" class="cls-8" d="M39.57,307.7l-3.27,3.27s1.688,2.321,3.376,2.321,3.376-2.321,3.376-2.321Z" transform="translate(-36.3 -307.7)"/>
        </g>
      </g>
      <g id="Forme_11_3_" transform="translate(35.644 328.395)">
        <g id="Gruppe_685" data-name="Gruppe 685">
          <path id="Pfad_382" data-name="Pfad 382" class="cls-8" d="M41.286,311.3l-2.848.422S33.479,351.7,33.9,353.707c.316,1.9,4.22,9.389,5.064,9.389s5.275-8.017,5.275-10.127S41.286,311.3,41.286,311.3Z" transform="translate(-33.876 -311.3)"/>
        </g>
      </g>
      <path id="Pfad_383" data-name="Pfad 383" class="cls-7" d="M391.879,449.116s2.637,6.118.422,8.334c-.949.949-5.908.844-10.971.949-6.857.211-14.03.316-14.03-1.266,0-2.743,20.36-8.334,20.36-8.334Z" transform="translate(20.077 24.646)"/>
      <path id="Pfad_384" data-name="Pfad 384" class="cls-7" d="M420.419,447.3s3.8,7.912,1.582,10.127c-.949.949-5.907.844-10.971.949-6.857.211-14.03.316-14.03-1.266,0-2.743,20.36-8.334,20.36-8.334Z" transform="translate(21.708 24.563)"/>
      <g id="pants_4_" transform="translate(403.091 380.191)">
        <g id="Gruppe_686" data-name="Gruppe 686">
          <path id="Pfad_385" data-name="Pfad 385" class="cls-8" d="M417.645,407.027c.211-2,2.532-19.938,3.27-30.065.949-12.132.422-16.562.422-16.562l-30.276.949s-7.279,47.788-8.123,53.379c-.844,5.7-.739,39.137-.739,39.137a17.073,17.073,0,0,0,6.33,1.582c1.793,0,3.481-.211,4.325-.844,2.215-1.688,3.481-35.656,3.481-35.656l5.7-27.639.949,25.318s6.857,35.972,8.334,37.66c.633.738,2.848,1.055,5.591,1.055a26.535,26.535,0,0,0,7.068-1.16C423.975,454.287,417.223,411.458,417.645,407.027Z" transform="translate(-382.196 -360.4)"/>
        </g>
      </g>
      <g id="Forme_20_2_" transform="translate(411.634 296.587)">
        <g id="Gruppe_687" data-name="Gruppe 687">
          <path id="Pfad_386" data-name="Pfad 386" class="cls-6" d="M407.812,305.888c.738-2.11,4.009-4.958,3.692-6.751-1.371-6.857-6.013-15.507-10.338-16.246-4.431-.738-5.169-3.27-6.329-.422,0,0-1.266,1.582-2.426,7.068-.211,1.16-1.9,2.954-2.11,4.325-.105,1.16,1.055,1.9,1.16,2.954.422,3.27.738,6.435,2.215,7.173,2.532,1.266,5.169,1.688,6.224,2.848s-.738,4.642-.738,4.642l10.549.316C409.605,311.69,407.284,307.47,407.812,305.888Z" transform="translate(-390.294 -281.147)"/>
        </g>
      </g>
      <g id="hand_right_11_" transform="translate(358.628 315.435)">
        <g id="Gruppe_688" data-name="Gruppe 688">
          <path id="Pfad_387" data-name="Pfad 387" class="cls-6" d="M351.074,300.476c-1.477.527.422,6.962-.105,7.384s-4.22-2.321-5.169-4.431-1.793-4.958-3.376-4.325-2.637,3.165-2.321,6.118c.316,2.848.949,4.325,3.27,6.962s7.7,5.7,7.7,5.7l4.853-4.536S352.551,299.949,351.074,300.476Zm96.419,76.165c-.949-3.376-4.22-8.334-4.22-8.334l-5.486,2.215s-2,13.608-.633,13.714,2.11-6.54,2.637-6.646c.527-.211,2.637,3.8,2.637,6.118s-.316,5.275,1.16,5.275,3.27-1.9,4.114-4.642S448.442,380.016,447.493,376.641Z" transform="translate(-340.047 -299.015)"/>
        </g>
      </g>
      <g id="t-shirt_5_" transform="translate(369.549 324.925)">
        <g id="Gruppe_689" data-name="Gruppe 689">
          <path id="Pfad_388" data-name="Pfad 388" class="cls-9" d="M423.505,369.4v-.105C423.4,369.4,423.4,369.4,423.505,369.4Zm15.4-25.529c-2-9.811-6.646-22.364-8.967-26.162-4.747-7.806-9.811-8.334-17.828-9.389a53.6,53.6,0,0,0-8.861-.211c-6.118,0-14.98,6.751-19.41,11.077-4.325,4.325-10.76,13.081-12.237,13.081-2.426-.106-16.351-22.153-16.351-21.942,0,0-4.747,5.8-4.853,8.334,0,2.532,16.14,28.061,19.516,28.061s17.617-13.186,18.461-12.975,1.16,10.127,1.582,15.4,1.793,22.364,1.793,22.364,30.276-2.848,31.542-2c-.105-1.266.105-13.819-.316-24.157-.105-2.321-.316-13.4.316-13.714s2.637,4.009,5.7,15.613,7.068,24.79,7.068,24.79,6.118-2.215,7.068-4.114C444.182,365.809,440.911,353.572,438.907,343.866Z" transform="translate(-350.4 -308.011)"/>
        </g>
      </g>
      <g id="Forme_21_3_" transform="translate(416.277 291.157)">
        <g id="Gruppe_690" data-name="Gruppe 690">
          <path id="Pfad_389" data-name="Pfad 389" class="cls-8" d="M420.651,285.494C417.908,279.8,413.9,276,406.2,276a22.337,22.337,0,0,0-9.283,2.321,4.1,4.1,0,0,0-2.215,3.8,21.4,21.4,0,0,0,1.688,4.431c1.266,2.532,2.743,5.275,6.962,6.435s1.371,5.38.633,7.279-1.688,3.8-.105,8.017c1.688,4.22,8.017,6.224,12.026,5.591a11.629,11.629,0,0,0,9.916-9.389C426.981,298.47,423.5,291.191,420.651,285.494Z" transform="translate(-394.696 -276)"/>
        </g>
      </g>
    </g>
  </g>
</svg>
