<svg xmlns="http://www.w3.org/2000/svg" xmlns:xlink="http://www.w3.org/1999/xlink" viewBox="780 120 683 550">
  <defs>
    <style>
      .cls-1 {
        clip-path: url(#clip-iPad_2);
      }

      .cls-3 {
        fill: #e3000f;
      }

      .cls-4, .cls-5 {
        fill: #fff;
      }

      .cls-10, .cls-4, .cls-6, .cls-7, .cls-9 {
        fill-rule: evenodd;
      }

      .cls-6 {
        fill: #b1b2b3;
      }

      .cls-7 {
        fill: #f08290;
      }

      .cls-8 {
        fill: #45535b;
      }

      .cls-9 {
        fill: #0f0e09;
      }

      .cls-10 {
        fill: #285aa7;
      }
    </style>
    <clipPath id="clip-iPad_2">
      <rect x="780" y="-17" width="683" height="769"/>
    </clipPath>
  </defs>
  <g id="iPad_2" data-name="iPad – 2" class="cls-1">
    <g id="man_Kopie" transform="translate(862.574 175.66)">
      <g id="Gruppe_669" data-name="Gruppe 669">
        <g id="Forme_1_2_" transform="translate(132.553 9.85)">
          <g id="Gruppe_641" data-name="Gruppe 641">
            <circle id="Ellipse_2" data-name="Ellipse 2" class="cls-3" cx="128.806" cy="128.806" r="128.806"/>
          </g>
        </g>
        <g id="Forme_2_copie_6_" transform="translate(211.121 259.432)">
          <g id="Gruppe_642" data-name="Gruppe 642">
            <path id="Pfad_326" data-name="Pfad 326" class="cls-4" d="M304.915,250.544a5.388,5.388,0,0,0-6.424-4.069,5.18,5.18,0,0,0-3.855,3.533l-36.19.107v-7.709L240.03,242.3v7.709l-32.549-.428a5.068,5.068,0,0,0-6.1-4.069,5.377,5.377,0,0,0,2.356,10.493,5.54,5.54,0,0,0,4.069-4.283l32.228.321v7.709l18.416.107.107-8.673v1.071l35.976-.107a1.822,1.822,0,0,0,.107.749,5.388,5.388,0,0,0,6.424,4.069A5.234,5.234,0,0,0,304.915,250.544Z" transform="translate(-197.18 -242.3)"/>
          </g>
        </g>
        <g id="Forme_3_2_" transform="translate(384.169 88.119)">
          <g id="Gruppe_643" data-name="Gruppe 643">
            <path id="Pfad_327" data-name="Pfad 327" class="cls-4" d="M375.182,192.154l-5.246-50.644h6.21V122.987h-7.6l13.6-40.687H380l-13.6,40.687h-7.6V141.51h8.994l5.675,51.608a5.346,5.346,0,0,0-1.178,7.174,5.42,5.42,0,1,0,9.1-5.889A6.209,6.209,0,0,0,375.182,192.154Z" transform="translate(-358.8 -82.3)"/>
          </g>
        </g>
        <g id="Forme_2_copie_4_" transform="translate(211.229)">
          <g id="Gruppe_644" data-name="Gruppe 644">
            <path id="Pfad_328" data-name="Pfad 328" class="cls-4" d="M305.122,8.137A5.388,5.388,0,0,0,298.7,4.069,5.18,5.18,0,0,0,294.843,7.6l-36.19.107V0H240.13V7.709L207.58,7.281a5.068,5.068,0,0,0-6.1-4.069,5.377,5.377,0,1,0,2.356,10.493A5.54,5.54,0,0,0,207.9,9.422l32.228.321v7.709l18.416.107.107-8.673V9.958l35.976-.107a1.821,1.821,0,0,0,.107.749,5.388,5.388,0,0,0,6.424,4.069A5.516,5.516,0,0,0,305.122,8.137Z" transform="translate(-197.28)"/>
          </g>
        </g>
        <circle id="Ellipse_3" data-name="Ellipse 3" class="cls-5" cx="5.568" cy="5.568" r="5.568" transform="translate(111.675 196.261)"/>
        <circle id="Ellipse_4" data-name="Ellipse 4" class="cls-5" cx="5.568" cy="5.568" r="5.568" transform="translate(399.802 82.659)"/>
        <g id="Forme_6_3_" transform="translate(46.576 218.638)">
          <g id="Gruppe_645" data-name="Gruppe 645">
            <path id="Pfad_329" data-name="Pfad 329" class="cls-6" d="M104.851,204.2l-60.067.321.321,2.141-1.606.321,42.721,193.8,3.105-.749L46.819,207.412h55.356L145,401.21l3.212-.642Z" transform="translate(-43.5 -204.2)"/>
          </g>
        </g>
        <g id="Forme_5_1_" transform="translate(0 215.961)">
          <g id="Gruppe_646" data-name="Gruppe 646">
            <path id="Pfad_330" data-name="Pfad 330" class="cls-4" d="M105.893,205.447l.321-1.713-3.105-.642-.428,2.356H47.861l.642-3.105L45.4,201.7l-.75,3.747H37.475v3.212H43.9l-7.816,38.867H26.232v3.212H35.44L27.089,292.5H15.954v3.212H26.446l-8.352,41.758H11.349v3.212h6.1L9.315,380.829H0v3.212H8.673l-4.6,23.02,3.105.642,4.711-23.663h54.82L61.78,408.453l3.105.642,5.032-25.055h4.818v-3.212H70.667L78.8,340.571h7.388v-3.212H79.446L87.8,295.6h3v-3.212H88.44l8.352-41.758h4.283v-3.212h-3.64l7.816-38.867h6.96V205.34h-6.317ZM67.347,380.829H12.527l8.137-40.259h54.82Zm8.78-43.578H21.307l8.352-41.758h54.82Zm8.994-44.863H30.3l8.352-41.758h54.82Zm8.994-44.97H39.4l7.816-38.867h54.82Z" transform="translate(0 -201.7)"/>
          </g>
        </g>
        <g id="Forme_17_3_" transform="translate(436.42 361.256)">
          <g id="Gruppe_647" data-name="Gruppe 647">
            <path id="Pfad_331" data-name="Pfad 331" class="cls-6" d="M468.951,337.4l-60.816.214-.535.107.535,2.248v.107h0L422.59,405.5l3.105-.642-14.24-64.778,54.82-.107,15.1,65.527,3.105-.75Z" transform="translate(-407.6 -337.4)"/>
          </g>
        </g>
        <g id="Forme_16_3_" transform="translate(415.862 357.937)">
          <g id="Gruppe_648" data-name="Gruppe 648">
            <path id="Pfad_332" data-name="Pfad 332" class="cls-4" d="M467.954,338.047l.321-1.713-3.105-.642-.428,2.356h-54.82l.642-3.105-3.105-.642-.75,3.747h-7.174v3.212h6.531l-7.816,38.76H388.4v3.212h9.208l-5.353,26.661,3.1.642,5.461-27.3h54.82l-5.568,27.517,3.105.642,5.675-28.16h4.283v-3.212h-3.64l7.816-38.76h6.96v-3.212h-6.317Zm-11.671,42.079h-54.82l7.816-38.76H464.1Z" transform="translate(-388.4 -334.3)"/>
          </g>
        </g>
        <g id="Forme_15_2_" transform="translate(312 249.593)">
          <g id="Gruppe_649" data-name="Gruppe 649">
            <path id="Pfad_333" data-name="Pfad 333" class="cls-7" d="M301.786,233.528c-4.283-.857-6-.214-7.281.321-1.285.642-2.891,1.82-3.105,3.319s9.743,3.426,10.172,4.176c.321.75-4.5.428-5.675.642-1.071.214-1.178.428-.428,1.606s15.739,3.212,15.739,3.212l1.82-3.962C312.921,242.843,306.069,234.384,301.786,233.528Z" transform="translate(-291.397 -233.11)"/>
          </g>
        </g>
        <g id="Forme_15_copie_3_2_" transform="translate(304.884 266.703)">
          <g id="Gruppe_650" data-name="Gruppe 650">
            <path id="Pfad_334" data-name="Pfad 334" class="cls-7" d="M303.648,256.167s-9.422-7.388-10.814-7.067-1.5.535-.857,1.392c.642.964,4.283,4.176,3.533,4.5s-9.208-5.461-10.172-4.176c-.857,1.178-.642,3.212-.214,4.5.428,1.392,1.5,3.64,4.925,5.461s14.562,1.285,14.562,1.285Z" transform="translate(-284.75 -249.091)"/>
          </g>
        </g>
        <g id="Forme_9_2_" transform="translate(368.21 247.43)">
          <g id="Gruppe_651" data-name="Gruppe 651">
            <path id="Pfad_335" data-name="Pfad 335" class="cls-7" d="M363.6,257.333c.75-2.356,4.176-4.283,3.747-6.317-1.5-7.6-6.638-17.131-11.457-17.988s-5.675-3.64-7.067-.428c0,0-1.5,1.82-2.677,7.816-.321,1.392-2.141,3.212-2.249,4.711-.107,1.285,1.178,2.141,1.285,3.319.428,3.64,0,6.317,2.463,7.923s4.925,1.178,6.1,2.463-.107,5.782-.107,5.782l11.135,1.285C364.886,265.792,363.066,259.046,363.6,257.333Z" transform="translate(-343.894 -231.091)"/>
          </g>
        </g>
        <path id="Pfad_336" data-name="Pfad 336" class="cls-8" d="M345.1,394.028s2.784,6.424.428,8.673c-.964.964-6.21.857-11.457.964-7.174.214-14.669.321-14.669-1.285,0-2.891,21.414-8.78,21.414-8.78Z" transform="translate(22.584 27.83)"/>
        <path id="Pfad_337" data-name="Pfad 337" class="cls-8" d="M378.883,394.028s3,6.317.642,8.673c-.964.964-6.21.857-11.457.964-7.174.214-14.669.321-14.669-1.285,0-2.891,21.414-8.78,21.414-8.78Z" transform="translate(24.988 27.83)"/>
        <g id="Forme_10_3_" transform="translate(371.602 238.768)">
          <g id="Gruppe_652" data-name="Gruppe 652">
            <path id="Pfad_338" data-name="Pfad 338" class="cls-9" d="M373.977,223a8.865,8.865,0,0,0-8.887,8.887v.214c-6.638-4.711-12.527-3-16.489-.857-4.711,2.57,2.463,11.457,7.174,15.311s7.388,11.992,7.388,11.992,5.675-2.249,8.03-6.853c1.713-3.212,1.285-7.495.321-11.242a8.876,8.876,0,0,0,11.242-8.566A8.708,8.708,0,0,0,373.977,223Z" transform="translate(-347.063 -223)"/>
          </g>
        </g>
        <g id="Forme_8_3_" transform="translate(358.988 335.345)">
          <g id="Gruppe_653" data-name="Gruppe 653">
            <path id="Pfad_339" data-name="Pfad 339" class="cls-9" d="M376.523,374.873c-1.178-6-1.713-16.168-2.034-18.952-.964-7.388-.428-40.473-.428-40.473l-29.98-2.249s-6.531,27.624-8.137,40.9.214,45.077.214,45.077,1.071,1.178,4.176,1.713a7.484,7.484,0,0,0,4.925-.642,183.16,183.16,0,0,0,2.891-23.341c.321-6.745-.321-10.707.75-13.384,2.677-7.067,8.03-24.733,8.03-24.733s2.677,18.416,4.39,30.515,10.707,30.943,10.707,30.943a25.988,25.988,0,0,0,4.6.642,7.558,7.558,0,0,0,4.283-1.071S378.665,385.366,376.523,374.873Z" transform="translate(-335.281 -313.2)"/>
          </g>
        </g>
        <g id="Forme_7_3_" transform="translate(320.823 255.578)">
          <g id="Gruppe_654" data-name="Gruppe 654">
            <path id="Pfad_340" data-name="Pfad 340" class="cls-10" d="M378.615,292.021c-.857-14.24-2.677-22.164-7.495-27.517s-16.382-3.426-22.806-5.139c-6.317-1.713-13.491-5.461-18.2-7.6-7.923-3.747-17.774-13.063-20.129-13.063-1.071,0-2.248,6.317-1.392,7.923s8.887,8.78,17.131,14.348c3.64,2.463,8.994,5.461,12.634,8.459-4.069-.964-11.457-3-14.026-3.64-9.636-2.677-20.879-10.6-22.806-10.493s-2.356,7.067-1.392,8.994,16.7,10.814,24.412,13.277c4.176,1.392,14.026,3.105,21.842,5.139a138.347,138.347,0,0,1-.642,15.311c-.642,10.065-.535,26.125-.535,26.125a90.248,90.248,0,0,0,14.133.75,136.757,136.757,0,0,0,17.131-1.392S379.472,305.619,378.615,292.021Z" transform="translate(-299.637 -238.7)"/>
          </g>
        </g>
        <g id="Forme_20_1_" transform="translate(455.365 174.1)">
          <g id="Gruppe_655" data-name="Gruppe 655">
            <path id="Pfad_341" data-name="Pfad 341" class="cls-7" d="M427.549,171.165c1.178-5.568,2.463-7.174,2.463-7.174,1.285-3,2.034-.321,6.424.428,4.5.749,9.208,9.529,10.493,16.489.321,1.82-3,4.711-3.747,6.853-.535,1.606,1.82,5.889,1.82,5.889l-10.707-.321s1.82-3.533.749-4.711-3.64-1.606-6.317-2.891c-1.5-.749-1.82-3.855-2.248-7.281-.107-1.071-1.285-1.82-1.178-3C425.515,174.163,427.228,172.45,427.549,171.165Z" transform="translate(-425.294 -162.603)"/>
          </g>
        </g>
        <path id="Pfad_342" data-name="Pfad 342" class="cls-8" d="M425.4,329.428s2.784,6.424.428,8.673c-.964.964-6.21.857-11.457.964-7.174.214-14.669.321-14.669-1.285,0-2.891,21.414-8.78,21.414-8.78Z" transform="translate(28.261 23.262)"/>
        <path id="Pfad_343" data-name="Pfad 343" class="cls-8" d="M458.283,328.328s3,6.317.642,8.673c-.964.964-6.21.857-11.457.964-7.174.214-14.669.321-14.669-1.285,0-2.891,21.414-8.78,21.414-8.78Z" transform="translate(30.602 23.185)"/>
        <g id="Forme_19_3_" transform="translate(444.153 262.43)">
          <g id="Gruppe_656" data-name="Gruppe 656">
            <path id="Pfad_344" data-name="Pfad 344" class="cls-9" d="M458.055,310.948c-1.178-6.1-3-12.956-3.319-15.632s2.356-26.982,2.463-33.513c.107-12.313-.75-16.7-.75-16.7l-31.05,1.071s-7.388,30.408-9.315,43.792-1.071,44.648-1.071,44.648a11.942,11.942,0,0,0,4.711,1.713,16.833,16.833,0,0,0,6.638-.535s2.356-15.954,3-26.661c.428-6.745.107-9.315,1.606-16.061,1.5-6.853,7.174-24.2,8.352-23.77,1.178.535.214,17.238.535,26.982s11.564,37.475,11.564,37.475a21.966,21.966,0,0,0,5.354,1.071,8.058,8.058,0,0,0,4.283-.964S460.089,321.548,458.055,310.948Z" transform="translate(-414.823 -245.1)"/>
          </g>
        </g>
        <g id="Forme_15_copie_3_" transform="translate(393.754 202.898)">
          <g id="Gruppe_657" data-name="Gruppe 657">
            <path id="Pfad_345" data-name="Pfad 345" class="cls-7" d="M386.112,198.066s-8.244-8.673-9.636-8.566-1.5.321-1.071,1.285c.535.964,3.64,4.818,2.784,4.925s-8.351-6.745-9.422-5.675-1.178,3-.857,4.5a10.081,10.081,0,0,0,4.069,6.1c2.891,2.356,14.133,3.426,14.133,3.426Z" transform="translate(-367.751 -189.499)"/>
          </g>
        </g>
        <g id="Forme_15_copie_2_3_" transform="translate(392.638 194.098)">
          <g id="Gruppe_658" data-name="Gruppe 658">
            <path id="Pfad_346" data-name="Pfad 346" class="cls-7" d="M368.305,184.621c.857-1.071,1.927-1.713,6.21-3.105S387.9,185.37,387.9,185.37l-3,4.925s-10.921,3.319-12.1,2.463c-1.071-.75-1.071-.964-.214-1.606s5.246-2.249,4.711-2.784-10.065,1.606-10.493.214S367.449,185.584,368.305,184.621Z" transform="translate(-366.709 -181.281)"/>
          </g>
        </g>
        <g id="Forme_18_3_" transform="translate(409.756 195.297)">
          <g id="Gruppe_659" data-name="Gruppe 659">
            <path id="Pfad_347" data-name="Pfad 347" class="cls-10" d="M459.9,213.986c-1.071-10.172-4.283-19.059-9.422-21.735S439.662,190,431.953,190c-10.065-.107-20.558,1.178-25.911,0-9.315-2.141-23.341-7.6-23.341-7.6s-.107,7.923.857,9.529,11.028,4.39,19.273,7.6c-9.315-.964-19.273-3-19.273-3s.857,6.96,1.285,8.994,19.808,4.176,27.945,4.176c3.105,0,12.849-.857,14.883-.535s-.75,14.99-1.285,22.806a188.293,188.293,0,0,0,.321,22.378s9.1.321,17.667.321a52.231,52.231,0,0,0,14.776-2.034S461.718,231.224,459.9,213.986Z" transform="translate(-382.697 -182.4)"/>
          </g>
        </g>
        <g id="Forme_21_1_" transform="translate(460.292 168.743)">
          <g id="Gruppe_660" data-name="Gruppe 660">
            <path id="Pfad_348" data-name="Pfad 348" class="cls-9" d="M458.06,166.38c-2.784-5.782-8.78-8.78-16.489-8.78a22.672,22.672,0,0,0-9.422,2.356,4.157,4.157,0,0,0-2.248,3.855,21.717,21.717,0,0,0,1.713,4.5c1.285,2.57,2.784,5.354,7.067,6.531s1.392,5.461.642,7.388-1.713,3.855-.107,8.137c1.713,4.283,9.208,6.1,13.277,5.461a12.229,12.229,0,0,0,9.958-9.958C463.735,179.764,460.844,172.162,458.06,166.38Z" transform="translate(-429.896 -157.6)"/>
          </g>
        </g>
        <g id="Forme_26_3_" transform="translate(59.072 31.317)">
          <g id="Gruppe_661" data-name="Gruppe 661">
            <path id="Pfad_349" data-name="Pfad 349" class="cls-7" d="M75.76,39.689A39.667,39.667,0,0,0,73.4,31.338c-1.285-3.105-5.782-2.034-10.493-1.285C58.2,30.91,56.594,42.687,55.2,49.968c-.428,1.927,3.747,4.711,3.962,7.281.214,2.463-2.248,6.96-2.248,6.96l11.564-1.178s-1.927-3.747-.857-4.925c1.178-1.285,3.855-1.713,6.638-3,1.606-.749,1.927-4.069,2.356-7.709.107-1.178,1.392-1.927,1.285-3.212S75.974,40.974,75.76,39.689Z" transform="translate(-55.171 -29.249)"/>
          </g>
        </g>
        <g id="Forme_15_copie_4_7_" transform="translate(123.988 62.743)">
          <g id="Gruppe_662" data-name="Gruppe 662">
            <path id="Pfad_350" data-name="Pfad 350" class="cls-7" d="M133.467,58.814c-1.178-1.071-8.352,6.638-9.529,6.424-1.178-.107,1.5-3.426,1.927-4.39s1.071-2.141-.428-2.248-9.636,9.529-9.636,9.529l.214,6.21s11.242-.964,14.669-4.39c3.319-3.426,3.533-4.925,3.855-6.638A4.538,4.538,0,0,0,133.467,58.814Z" transform="translate(-115.8 -58.599)"/>
          </g>
        </g>
        <g id="Forme_27_3_" transform="translate(49.479 26.392)">
          <g id="Gruppe_663" data-name="Gruppe 663">
            <path id="Pfad_351" data-name="Pfad 351" class="cls-9" d="M73.181,28.344c-3.426-3.319-14.347-7.067-22.806,1.82-4.283,4.5-5.354,13.6-2.784,18.523,2.463,4.818,11.885,8.244,11.885,8.244s-1.285-8.137,4.711-12.848C71.468,38.409,76.5,31.556,73.181,28.344Z" transform="translate(-46.211 -24.649)"/>
          </g>
        </g>
        <g id="Forme_29_3_" transform="translate(63.493 70.667)">
          <g id="Gruppe_664" data-name="Gruppe 664">
            <path id="Pfad_352" data-name="Pfad 352" class="cls-10" d="M120.651,66,98.274,72.1c-2.463.535-38.974.964-38.974.964L71.72,86.558s23.877-3,26.768-3.747,22.057-6.21,22.378-7.6C121.08,73.816,120.651,66,120.651,66Z" transform="translate(-59.3 -66)"/>
          </g>
        </g>
        <g id="Forme_4_2_" transform="translate(114.566 62.743)">
          <g id="Gruppe_665" data-name="Gruppe 665">
            <path id="Pfad_353" data-name="Pfad 353" class="cls-4" d="M125.844,124.663l-.75-66.063h-2.141l.857,66.063h-8.673l-.107,18.523h8.03L107,197.578l2.141.964L125.2,143.186h7.281V124.663Z" transform="translate(-107 -58.6)"/>
          </g>
        </g>
        <circle id="Ellipse_5" data-name="Ellipse 5" class="cls-5" cx="5.568" cy="5.568" r="5.568" transform="translate(125.092 59.453) rotate(-13.286)"/>
        <path id="Pfad_354" data-name="Pfad 354" class="cls-8" d="M77.688,196.621s-2.677,6.21-.428,8.459c.964.964,6,.857,11.135.964,6.96.214,14.24.321,14.24-1.285,0-2.784-20.665-8.459-20.665-8.459Z" transform="translate(5.399 13.88)"/>
        <path id="Pfad_355" data-name="Pfad 355" class="cls-8" d="M45.2,196.628s-2.891,6.1-.642,8.352c.964.964,6,.857,11.135.964,6.96.214,14.24.321,14.24-1.285,0-2.784-20.665-8.459-20.665-8.459Z" transform="translate(3.09 13.873)"/>
        <g id="Forme_25_3_" transform="translate(47.736 123.881)">
          <g id="Gruppe_666" data-name="Gruppe 666">
            <path id="Pfad_356" data-name="Pfad 356" class="cls-9" d="M88.5,160.67c-1.927-13.6-8.673-44.97-8.673-44.97l-32.442,2.356s-.964,4.711-.642,15.954c.214,7.495,1.82,25.162,1.5,28.16-.321,2.784-1.285,8.352-2.463,14.562-2.034,10.707-.857,26.339-.857,26.339a14.5,14.5,0,0,0,4.925.749c2.677-.107,5.032-.321,5.032-.321s7.281-27.41,7.6-37.261,2.784-26.768,2.784-26.768,7.174,15.739,10.065,22.913c1.071,2.784-.214,10.279.321,17.238.642,11.028,2.57,23.984,2.57,23.984A29.249,29.249,0,0,0,84,204.14a17.821,17.821,0,0,0,5.032-1.071S90.427,174.268,88.5,160.67Z" transform="translate(-44.583 -115.7)"/>
          </g>
        </g>
        <g id="Forme_15_copie_4_5_" transform="translate(117.992 45.984)">
          <g id="Gruppe_667" data-name="Gruppe 667">
            <path id="Pfad_357" data-name="Pfad 357" class="cls-7" d="M132.149,46.644a4.894,4.894,0,0,0-3.533-3.212c-1.606-.428-3-.964-7.6.321S110.2,54.567,110.2,54.567l2.248,4.283s15.418-3.747,16.061-5.139c.642-1.285-.749-1.392-1.82-1.392s-5.246.749-4.818-.321C122.513,50.82,132.578,48.143,132.149,46.644Z" transform="translate(-110.2 -42.948)"/>
          </g>
        </g>
        <g id="Forme_24_3_" transform="translate(49.155 53.857)">
          <g id="Gruppe_668" data-name="Gruppe 668">
            <path id="Pfad_358" data-name="Pfad 358" class="cls-10" d="M116.78,50.3A135.857,135.857,0,0,1,99.435,60.472c-2.57,1.178-13.6,0-18.095-.535s-10.065-2.141-15.2-2.141S55.75,59.08,52.109,63.148,47.077,74.07,46.221,86.49c-1.071,16.7.964,36.832.964,36.832a46,46,0,0,0,14.347,1.606c7.6-.428,18.952-1.071,18.952-1.071A157.767,157.767,0,0,0,81.554,101.8c-.321-11.457-1.5-26.768-1.178-26.768,0-1.285-.964-1.606,3.533-2.57,5.568-1.285,14.562.428,19.808-1.927s14.776-10.172,15.311-11.457C119.457,58.009,116.78,50.3,116.78,50.3Z" transform="translate(-45.909 -50.3)"/>
          </g>
        </g>
      </g>
    </g>
  </g>
</svg>
